<svg xmlns="http://www.w3.org/2000/svg" width="20" height="17.187" viewBox="0 0 20 17.187">
  <g id="_3_User" data-name="3 User" transform="translate(0 -1.002)">
    <path id="Combined_Shape" data-name="Combined Shape" d="M3.838,13.918c0-3.256,4.638-3.256,6.163-3.256s6.163,0,6.163,3.275c0,3.253-4.477,3.253-6.163,3.253C8.476,17.183,3.838,17.183,3.838,13.918Zm1.378,0c0,1.433,2.6,1.735,4.784,1.735s4.784-.3,4.784-1.718-2.6-1.74-4.784-1.74S5.216,12.491,5.216,13.918ZM17.6,14.38a.847.847,0,0,1,.015-.587.725.725,0,0,1,.383-.4c.624-.264.624-.557.624-.7,0-.448-.512-.761-1.52-.929a.76.76,0,0,1-.579-.873.7.7,0,0,1,.784-.645C19.533,10.619,20,11.782,20,12.695a2.212,2.212,0,0,1-1.509,2.131.623.623,0,0,1-.527-.016.739.739,0,0,1-.362-.428Zm-16.089.444A2.218,2.218,0,0,1,0,12.69c0-.911.468-2.076,2.694-2.448a.7.7,0,0,1,.784.646.76.76,0,0,1-.58.873c-1.01.168-1.52.481-1.52.929,0,.14,0,.431.624.7a.748.748,0,0,1,.463.6.814.814,0,0,1-.252.736.632.632,0,0,1-.7.1ZM9.976,9.351A3.982,3.982,0,0,1,7.02,7.975,4.947,4.947,0,0,1,5.8,4.673,4.454,4.454,0,0,1,10,0,4.455,4.455,0,0,1,14.2,4.678,4.455,4.455,0,0,1,10,9.351ZM7.183,4.676A3.318,3.318,0,0,0,8,6.892a2.671,2.671,0,0,0,1.982.925L10,8.584V7.816a2.993,2.993,0,0,0,2.82-3.14A2.993,2.993,0,0,0,10,1.535,2.993,2.993,0,0,0,7.183,4.676Zm7.647,3a.758.758,0,0,1,.587-.867A2.105,2.105,0,0,0,17.1,4.684a2.118,2.118,0,0,0-1.634-2.168.762.762,0,0,1-.568-.882A.7.7,0,0,1,15.686,1,3.619,3.619,0,0,1,18.47,4.7a3.6,3.6,0,0,1-2.863,3.626.661.661,0,0,1-.092.007.719.719,0,0,1-.685-.661ZM4.393,8.33A3.6,3.6,0,0,1,1.529,4.7,3.618,3.618,0,0,1,4.317,1a.7.7,0,0,1,.791.634.763.763,0,0,1-.569.882A2.118,2.118,0,0,0,2.9,4.684,2.105,2.105,0,0,0,4.583,6.809a.751.751,0,0,1,.594.812.725.725,0,0,1-.685.716.68.68,0,0,1-.1-.007Z" transform="translate(0 1)" fill="#37a842"/>
  </g>
</svg>
