<svg xmlns="http://www.w3.org/2000/svg" width="16.677" height="20.501" viewBox="0 0 16.677 20.501">
  <g id="Call" transform="translate(0.001)">
    <path id="Fill_1" data-name="Fill 1" d="M12.682,20.5h-.023c-2.028,0-4.671-1.985-7.857-5.9C1.6,10.67-.012,7.41,0,4.914A4.169,4.169,0,0,1,.976,2.1c.011-.017.046-.059.065-.083L1.053,2C2.209.581,3,0,3.767,0h.021C4.7.015,5.344.851,6.162,1.909c.2.267.425.552.667.848a3.441,3.441,0,0,1,.578,3.606c-.3,1.043-.552,1.943.982,3.83a3.122,3.122,0,0,0,2.122,1.482A2.492,2.492,0,0,0,11.5,11.4a3.034,3.034,0,0,1,1.19-.324A2.309,2.309,0,0,1,14.436,12.1c.244.3.476.571.68.81.866,1.011,1.546,1.81,1.56,2.93.01.954-.462,1.928-1.627,3.361l-.517-.43.436.525a2.8,2.8,0,0,1-2.287,1.2ZM1.917,3.063c-.007.011-.045.058-.089.112A2.511,2.511,0,0,0,1.22,4.922c-.007,1.431.759,4.089,4.445,8.618C9.337,18.053,11.5,19,12.659,19h.017a1.7,1.7,0,0,0,1.419-.744q.067-.087.142-.166a4.468,4.468,0,0,0,1.22-2.226c0-.486-.5-1.061-1.176-1.857l0-.007c-.22-.257-.456-.533-.7-.836a1.219,1.219,0,0,0-.889-.591,2.132,2.132,0,0,0-.779.239,3.441,3.441,0,0,1-1.393.366,4.19,4.19,0,0,1-2.986-1.926C5.45,8.7,5.915,7.065,6.255,5.87c.244-.863.358-1.257-.288-2.052-.231-.284-.437-.549-.635-.805l-.053-.069,0-.007c-.643-.83-1.106-1.43-1.5-1.437H3.766c-.389,0-.993.51-1.848,1.561h0Z" transform="translate(0)" fill="#37a842"/>
  </g>
</svg>
