<svg xmlns="http://www.w3.org/2000/svg" width="15" height="14" viewBox="0 0 15 14">
  <g id="Heart" transform="translate(-0.002 0)">
    <path id="Combined_Shape" data-name="Combined Shape" d="M7.24,13.934C7.01,13.811,1.6,10.882.294,6.878A5.1,5.1,0,0,1,3.355.233,5.015,5.015,0,0,1,7.5.747,5.108,5.108,0,0,1,10.16.011a4.948,4.948,0,0,1,1.482.223,5.111,5.111,0,0,1,3.072,6.645,11.205,11.205,0,0,1-3.865,4.97,21.985,21.985,0,0,1-3.081,2.085A.566.566,0,0,1,7.5,14,.556.556,0,0,1,7.24,13.934ZM3.692,1.258c-2.4.76-3.008,3.293-2.355,5.291,1.018,3.1,4.975,5.6,6.164,6.289a22,22,0,0,0,3.116-2.22,9.59,9.59,0,0,0,3.05-4.066c.652-2,.047-4.533-2.361-5.294a3.946,3.946,0,0,0-3.466.569A.566.566,0,0,1,7.5,1.94a.553.553,0,0,1-.33-.108,3.9,3.9,0,0,0-3.479-.574Zm7.6,3.721a1.459,1.459,0,0,0-1.026-1.27.536.536,0,0,1-.354-.678.552.552,0,0,1,.692-.347,2.542,2.542,0,0,1,1.782,2.207.542.542,0,0,1-.5.58h-.045a.545.545,0,0,1-.545-.492Z" transform="translate(0 0)" fill="#37a842"/>
  </g>
</svg>
