<svg id="Iconly_Light_Work" data-name="Iconly/Light/Work" xmlns="http://www.w3.org/2000/svg" width="24" height="24" viewBox="0 0 24 24">
  <g id="Work" transform="translate(2 2)">
    <path id="Stroke_1" data-name="Stroke 1" d="M.5,2.537V0" transform="translate(9.495 12.14)" fill="none" stroke="#000" stroke-linecap="round" stroke-linejoin="round" stroke-miterlimit="10" stroke-width="1.5"/>
    <g id="Group_8" data-name="Group 8" transform="translate(0 0.74)">
      <path id="Stroke_2" data-name="Stroke 2" d="M15.44,0a3.051,3.051,0,0,1,3.05,3.06V6.5A18.524,18.524,0,0,1,9.24,8.81,18.485,18.485,0,0,1,0,6.5V3.05A3.051,3.051,0,0,1,3.06,0Z" transform="translate(0.75 2.59)" fill="none" stroke="#000" stroke-linecap="round" stroke-linejoin="round" stroke-miterlimit="10" stroke-width="1.5"/>
      <path id="Stroke_4" data-name="Stroke 4" d="M7,2.576V2.21A2.211,2.211,0,0,0,4.79,0H2.21A2.211,2.211,0,0,0,0,2.21v.366" transform="translate(6.495 0.01)" fill="none" stroke="#000" stroke-linecap="round" stroke-linejoin="round" stroke-miterlimit="10" stroke-width="1.5"/>
      <path id="Stroke_6" data-name="Stroke 6" d="M0,0,.189,2.509a3.242,3.242,0,0,0,3.232,3h11.6a3.242,3.242,0,0,0,3.232-3L18.441,0" transform="translate(0.774 12.743)" fill="none" stroke="#000" stroke-linecap="round" stroke-linejoin="round" stroke-miterlimit="10" stroke-width="1.5"/>
    </g>
  </g>
</svg>
