<svg xmlns="http://www.w3.org/2000/svg" width="16.5" height="19.5" viewBox="0 0 16.5 19.5">
  <g id="Location" transform="translate(0.001 -1)">
    <path id="Combined_Shape" data-name="Combined Shape" d="M0,8.313a8.25,8.25,0,1,1,16.5,0c0,5.635-6.456,11.187-8.25,11.187S0,13.948,0,8.313Zm1.5,0c0,4.8,5.628,9.436,6.75,9.683C9.372,17.748,15,13.111,15,8.313a6.75,6.75,0,1,0-13.5,0ZM5,8.251A3.25,3.25,0,1,1,8.251,11.5,3.25,3.25,0,0,1,5,8.251Zm1.5,0A1.75,1.75,0,1,0,8.251,6.5,1.75,1.75,0,0,0,6.5,8.251Z" transform="translate(-0.001 1)" fill="#37a842"/>
  </g>
</svg>
