<svg id="Lock" xmlns="http://www.w3.org/2000/svg" width="18.84" height="19.839" viewBox="0 0 12 15">
  <path id="Lock-2" data-name="Lock" d="M8.987,15H3.013A3.076,3.076,0,0,1,0,11.869v-3.7A3.1,3.1,0,0,1,2.1,5.2V4.05A3.983,3.983,0,0,1,5.989,0,3.818,3.818,0,0,1,8.753,1.185,4.1,4.1,0,0,1,9.9,4.05V5.2A3.1,3.1,0,0,1,12,8.166v3.7A3.076,3.076,0,0,1,8.987,15ZM6,8.538a.637.637,0,0,0-.624.649v1.654a.629.629,0,1,0,1.255,0V9.187A.641.641,0,0,0,6,8.538ZM6.007,1.3a2.7,2.7,0,0,0-2.65,2.728v1H8.644V4.05A2.693,2.693,0,0,0,6,1.3Z" transform="translate(0 0)" fill="#ff6e8c"/>
</svg>
